<svg width="349" height="349" viewBox="0 0 349 349" fill="none" xmlns="http://www.w3.org/2000/svg">
<path d="M174.5 218.125C198.593 218.125 218.125 198.593 218.125 174.5C218.125 150.407 198.593 130.875 174.5 130.875C150.407 130.875 130.875 150.407 130.875 174.5C130.875 198.593 150.407 218.125 174.5 218.125Z" fill="#6366F1"/>
<path fill-rule="evenodd" clip-rule="evenodd" d="M19.2446 166.454C40.8717 101.438 102.198 54.5312 174.508 54.5312C246.784 54.5312 308.086 101.395 329.74 166.363C331.49 171.614 331.492 177.295 329.745 182.546C308.118 247.562 246.792 294.469 174.482 294.469C102.206 294.469 40.9033 247.605 19.2494 182.637C17.4994 177.386 17.4977 171.705 19.2446 166.454ZM250.844 174.5C250.844 216.663 216.663 250.844 174.5 250.844C132.337 250.844 98.1562 216.663 98.1562 174.5C98.1562 132.337 132.337 98.1562 174.5 98.1562C216.663 98.1562 250.844 132.337 250.844 174.5Z" fill="#6366F1"/>
</svg>
